<svg preserveAspectRatio="none" width="100%" height="100%" overflow="visible" style="display: block;" viewBox="0 0 266.671 42.5374" fill="none" xmlns="http://www.w3.org/2000/svg">
<path id="Combined Shape" fill-rule="evenodd" clip-rule="evenodd" d="M186.337 0H186.768C188.638 0 189.573 0.323232 189.573 0.969697C189.573 1.16364 189.429 1.48687 189.213 1.87475L169.292 41.3091C169.004 41.9556 168.069 42.2788 166.559 42.2788H164.473C162.891 42.2788 162.028 41.9556 161.884 41.3091L161.875 41.2768C154.689 14.664 151.096 1.35755 151.096 1.29293C151.096 0.452525 152.103 0.0646463 154.117 0.0646463H154.692C156.274 0.0646463 157.137 0.387879 157.281 1.03434L165.912 33.099L166.271 36.202L167.566 33.0343L183.676 1.03434C183.891 0.323232 184.826 0 186.337 0ZM26.9531 42.3434C29.3983 38.2707 34.3607 28.5737 31.9874 18.6828C29.3264 7.49899 10.052 1.29293 5.80881 0.0646464C4.15467 2.90909 -1.95846 14.4162 0.630628 25.4707C2.7882 34.7152 16.0933 40.3394 22.7817 42.5374C21.9194 40.8503 20.9497 39.1953 19.9988 37.5725C19.6016 36.8946 19.2076 36.2223 18.8262 35.5556C18.5745 35.1354 18.3228 34.699 18.0711 34.2627L18.0709 34.2624C17.8192 33.8261 17.5675 33.3898 17.3159 32.9697C17.1743 32.7151 17.0215 32.4605 16.8664 32.202L16.8664 32.202C16.6276 31.804 16.3832 31.3967 16.1652 30.9657L16.1598 30.9567C12.5647 25.0108 8.11131 17.6451 10.2678 10.9253C10.4836 10.2141 11.2028 9.69697 12.0658 9.69697C12.6411 9.69697 13.2884 9.95556 13.648 10.3434C14.0076 10.7313 14.0795 11.2485 13.9357 11.7657C12.8569 15.1919 14.2953 18.8768 15.8775 22.4323C17.3665 25.7785 19.3014 29.0673 21.2027 32.299L21.5591 32.9051C21.9061 33.5289 22.2873 34.1528 22.6556 34.7554C22.8216 35.0271 22.9849 35.2944 23.1413 35.5556C23.3211 35.8788 23.5189 36.202 23.7167 36.5253C23.9145 36.8485 24.1122 37.1717 24.292 37.4949C24.8542 38.6434 25.489 39.7592 26.1449 40.912C26.4119 41.3815 26.6825 41.857 26.9531 42.3434ZM55.8036 0.129293C60.3343 0.129329 63.7861 0.970027 66.2313 2.65078C68.6046 4.33159 69.828 6.59423 69.828 9.50332C69.8279 11.7658 68.9647 13.8996 67.1668 15.9682C65.4408 18.0368 63.4262 19.3297 61.1249 19.9115L61.0536 20.1693C61.7008 20.2986 62.5641 20.6219 63.7147 21.1391C64.8651 21.6561 65.7997 22.2381 66.5907 22.8197C67.3099 23.4015 68.03 24.2422 68.6053 25.3412C69.1806 26.4401 69.5398 27.6685 69.5399 28.9613C69.5399 33.3573 67.8136 36.6549 64.4334 38.8529C60.9814 41.0508 56.3785 42.1498 50.4813 42.1498H38.6864C37.4638 42.1498 36.8885 41.6966 36.8885 40.7269C36.8896 40.6591 37.2026 37.9479 37.8207 32.5934C38.5616 26.1743 39.7411 15.9565 41.3475 1.93984C41.4913 0.711559 42.2105 0.129295 43.577 0.129293H55.8036ZM43.0018 37.56H53.1424C56.2348 37.5599 58.7521 36.7842 60.6219 35.2328C62.4918 33.6813 63.4266 31.5472 63.4266 28.9613C63.4265 27.0221 62.564 25.4702 60.91 24.4359C59.2559 23.4016 56.8098 22.8197 53.6454 22.8197H44.7274L43.0018 37.56ZM45.3749 18.2953H53.4295V18.2299C56.3782 18.2299 58.8237 17.4542 60.7655 15.9027C62.7073 14.3512 63.7147 12.4122 63.7147 10.2143C63.7147 6.52941 60.6938 4.71914 54.7245 4.71914H46.8856L45.3749 18.2953ZM83.1326 37.8828L81.3346 38.2061C80.7592 38.2061 80.2558 38.0768 79.8243 37.8182C79.5366 37.6889 79.3208 37.495 79.177 37.1071C79.0332 36.7838 78.9613 36.1374 78.9613 35.2323C78.9613 34.3273 79.8962 25.1475 82.773 1.42222C82.773 0.581818 81.9819 0.129293 80.2558 0.129293H79.9681C78.2421 0.129293 77.3071 0.517172 77.1633 1.42222L76.516 7.30505C74.3584 25.0182 73.2796 34.7798 73.2796 36.5899C73.2796 40.5333 75.2934 42.4727 79.3208 42.4727C80.112 42.4727 80.975 42.3434 81.838 42.0202C82.701 41.697 83.2045 41.1152 83.3483 40.3394C83.4922 39.5636 83.5641 38.9818 83.5641 38.5293C83.5641 38.0768 83.4202 37.8828 83.1326 37.8828ZM115.784 38.2061L117.582 37.8828C117.87 37.8828 118.013 38.0768 118.013 38.5293C118.013 38.9818 117.941 39.5636 117.798 40.3394C117.654 41.1152 117.15 41.697 116.287 42.0202C115.424 42.3434 114.561 42.4727 113.77 42.4727C109.743 42.4727 107.729 40.5333 107.729 36.5899V36.0081C104.493 40.3394 100.537 42.4727 95.8623 42.4727C89.9649 42.4727 87.0162 39.8869 87.0162 34.6505L89.5334 11.895C89.6772 10.9899 90.6122 10.602 92.3382 10.602H92.6259C94.28 10.602 95.1431 11.0545 95.1431 11.895C93.5608 25.7293 92.7697 32.9051 92.7697 33.4222C92.7697 36.5253 94.4239 38.0121 97.876 38.0121C99.7459 38.0121 101.688 37.2364 103.63 35.6848C105.643 34.1333 107.225 31.4828 108.52 27.798L110.39 11.8303C110.534 10.9253 111.469 10.5374 113.195 10.5374H113.482C115.209 10.5374 116 10.9899 116 11.8303C114.274 26.4404 113.411 34.2626 113.411 35.1677C113.411 36.0727 113.482 36.7192 113.626 37.0424C113.77 37.4303 113.986 37.6242 114.202 37.7535C114.633 38.0768 115.209 38.2061 115.784 38.2061ZM145.918 12.8649C144.12 11.1842 141.315 10.3435 137.504 10.3434C131.319 10.3434 126.716 12.1537 123.695 15.8386C120.675 19.5233 119.164 24.2422 119.164 30.0602C119.164 38.335 124.199 42.4723 134.268 42.4723C136.353 42.4723 138.583 42.149 141.1 41.5026C143.616 40.8562 144.983 39.887 145.271 38.6589C145.486 37.5599 145.63 36.7838 145.63 36.1374C145.63 35.5558 145.487 35.2324 145.199 35.2321C145.055 35.2321 144.479 35.4913 143.616 36.0085C140.955 37.4305 138.078 38.2063 134.698 38.0124C131.534 38.0123 129.089 37.3658 127.435 36.0729C125.78 34.78 124.918 32.5814 124.918 29.4137V28.8327C126.572 29.1559 128.514 29.2848 130.671 29.2848C135.489 29.2848 139.589 28.5091 143.041 26.9577C144.839 26.1819 146.206 25.0178 147.213 23.5309C148.22 22.0443 148.723 20.2991 148.723 18.36C148.723 16.4207 147.788 14.5457 145.918 12.8649ZM125.421 25.0827C126.5 18.1656 130.384 14.7389 137.072 14.7389C138.942 14.739 140.38 15.1273 141.387 15.9675C142.465 16.8078 143.041 17.7776 143.041 18.9411C143.041 20.1047 142.609 21.0743 141.818 21.9147C141.027 22.7551 140.164 23.4018 139.157 23.7897C136.928 24.63 133.979 25.0827 130.168 25.0827H125.421ZM198.563 11.96C198.563 11.1196 197.7 10.667 196.045 10.667H195.758C194.032 10.667 193.097 11.0549 192.954 11.96C192.949 11.9983 192.445 15.7478 191.586 23.2725C190.652 30.8361 190.22 35.362 190.22 36.7842C190.22 40.5981 192.235 42.4727 196.19 42.4727C196.981 42.4726 197.844 42.3436 198.707 42.0205C199.569 41.6973 200.073 41.1154 200.217 40.3398C200.361 39.5641 200.433 38.9818 200.433 38.5293C200.433 38.0769 200.289 37.8829 200.001 37.8828L198.204 38.2061C197.772 38.2061 197.34 38.1418 197.125 38.0771C196.837 38.0125 196.621 37.8183 196.334 37.4307C196.046 37.0428 195.902 36.331 195.902 35.3613C195.902 34.3904 196.765 26.5684 198.563 11.96ZM200.217 1.29297C200.217 0.452565 199.426 0 197.7 0H196.909C195.183 0 194.248 0.452566 194.104 1.29297L193.672 4.84863C193.673 5.68892 194.607 6.14158 196.477 6.1416H197.268C198.922 6.1416 199.786 5.75358 199.786 4.84863L200.217 1.29297ZM233.3 18.1657L231.358 35.6848C231.358 36.9131 231.646 37.6242 232.149 37.8182C232.653 38.0121 233.156 38.1414 233.731 38.1414L235.529 37.8182C235.817 37.8182 235.961 38.0121 235.961 38.4646C235.961 38.9172 235.889 39.499 235.745 40.2747C235.601 41.0505 235.098 41.6323 234.235 41.9556C233.372 42.2788 232.509 42.4081 231.718 42.4081C227.69 42.4081 225.676 40.4687 225.676 36.5253C225.676 35.8141 225.964 32.8404 226.611 27.604C227.259 22.3677 227.546 19.5879 227.546 19.2646C227.546 16.1616 225.892 14.6747 222.44 14.6747C220.642 14.6747 218.7 15.3859 216.758 16.8727C214.745 18.3596 213.162 20.8162 211.868 24.3071L209.926 40.7919C209.782 41.697 208.847 42.0848 207.121 42.0848H206.834C205.107 42.0848 204.316 41.697 204.316 40.8566C206.258 25.2121 207.265 16.4848 207.265 14.5455L207.193 12.4768C207.193 11.5717 208.416 11.1192 210.933 11.1192C212.084 11.1192 212.659 12.6061 212.659 15.6444C212.659 15.8384 212.659 16.0323 212.587 16.2909C215.895 12.2182 219.851 10.2141 224.454 10.2141C230.423 10.4081 233.3 12.9939 233.3 18.1657ZM263.937 12.8649C262.139 11.1842 259.335 10.3435 255.523 10.3434C249.338 10.3434 244.735 12.1537 241.715 15.8386C238.694 19.5233 237.184 24.2422 237.183 30.0602C237.183 38.335 242.218 42.4723 252.287 42.4723C254.372 42.4723 256.602 42.149 259.119 41.5026C261.636 40.8562 263.002 39.887 263.29 38.6589C263.506 37.5599 263.649 36.7838 263.649 36.1374C263.649 35.5556 263.434 35.2322 263.146 35.2321C263.003 35.2321 262.427 35.4913 261.564 36.0085C258.903 37.4307 256.026 38.2063 252.646 38.0124C249.482 38.0124 247.037 37.3657 245.383 36.0729C243.729 34.78 242.865 32.5814 242.865 29.4137V28.8327C244.519 29.1559 246.461 29.2848 248.619 29.2848C253.437 29.2848 257.537 28.5092 260.989 26.9577C262.787 26.1819 264.153 25.0177 265.16 23.5309C266.167 22.0442 266.671 20.2991 266.671 18.36C266.671 16.4207 265.807 14.5457 263.937 12.8649ZM243.369 25.0827C244.448 18.1657 248.331 14.739 255.019 14.7389C256.889 14.7389 258.328 15.1271 259.335 15.9675C260.413 16.8078 260.989 17.7776 260.989 18.9411C260.989 20.1045 260.557 21.0744 259.766 21.9147C258.975 22.7551 258.112 23.4018 257.105 23.7897C254.876 24.6301 251.927 25.0827 248.115 25.0827H243.369Z" fill="var(--fill-0, black)"/>
</svg>
