<svg preserveAspectRatio="none" width="100%" height="100%" overflow="visible" style="display: block;" viewBox="0 0 43.1218 802.167" fill="none" xmlns="http://www.w3.org/2000/svg">
<g id="Group 1261151964">
<path id="Vector 3" d="M43.1218 2.66667C43.1218 4.13943 41.9278 5.33333 40.4551 5.33333C38.9823 5.33333 37.7884 4.13943 37.7884 2.66667C37.7884 1.19391 38.9823 8.33243e-08 40.4551 8.33243e-08C41.9278 8.33243e-08 43.1218 1.19391 43.1218 2.66667ZM40.4551 2.66667L40.4551 3.16667L8.50005 3.16659L8.50005 2.66659L8.50005 2.16659L40.4551 2.16667L40.4551 2.66667ZM0.500034 10.6666H1.00003L1 802.167H0.5H0L3.43323e-05 10.6666H0.500034ZM8.50005 2.66659L8.50005 3.16659C4.35791 3.16658 1.00003 6.52444 1.00003 10.6666H0.500034H3.43323e-05C3.43323e-05 5.97216 3.80562 2.16658 8.50005 2.16659L8.50005 2.66659Z" fill="var(--stroke-0, #FF00CC)"/>
</g>
</svg>
