<svg preserveAspectRatio="none" width="100%" height="100%" overflow="visible" style="display: block;" viewBox="0 0 103.122 215.667" fill="none" xmlns="http://www.w3.org/2000/svg">
<g id="Group 1261151963">
<path id="Vector 3" d="M103.122 2.66667C103.122 4.13943 101.928 5.33333 100.455 5.33333C98.9823 5.33333 97.7884 4.13943 97.7884 2.66667C97.7884 1.19391 98.9823 7.2132e-08 100.455 7.2132e-08C101.928 7.2132e-08 103.122 1.19391 103.122 2.66667ZM0.499999 10.6667H0.999999H0.499999ZM100.455 2.66667L100.455 3.16667L8.5 3.16666V2.66666V2.16666L100.455 2.16667L100.455 2.66667ZM0.499999 10.6667H0.999999L1.00001 215.667H0.500015H1.46925e-05L-5.66244e-07 10.6667H0.499999ZM8.5 2.66666V3.16666C4.35786 3.16666 0.999999 6.52452 0.999999 10.6667H0.499999H-5.66244e-07C-5.66244e-07 5.97224 3.80557 2.16666 8.5 2.16666V2.66666Z" fill="var(--stroke-0, #FF00CC)"/>
</g>
</svg>
