<svg preserveAspectRatio="none" width="100%" height="100%" overflow="visible" style="display: block;" viewBox="0 0 206.122 76.6667" fill="none" xmlns="http://www.w3.org/2000/svg">
<g id="Group 1261151961">
<path id="Vector 3" d="M206.122 2.66667C206.122 4.13943 204.928 5.33333 203.455 5.33333C201.982 5.33333 200.788 4.13943 200.788 2.66667C200.788 1.19391 201.982 -3.84981e-08 203.455 -3.84981e-08C204.928 -3.84981e-08 206.122 1.19391 206.122 2.66667ZM203.455 2.66667V3.16667H8.5V2.66667V2.16667H203.455V2.66667ZM0.499996 10.6667H0.999996V76.6667H0.499996H-4.17233e-06V10.6667H0.499996ZM8.5 2.66667V3.16667C4.35786 3.16667 0.999996 6.52453 0.999996 10.6667H0.499996H-4.17233e-06C-4.17233e-06 5.97225 3.80557 2.16667 8.5 2.16667V2.66667Z" fill="var(--stroke-0, #FF00CC)"/>
</g>
</svg>
