<svg preserveAspectRatio="none" width="100%" height="100%" overflow="visible" style="display: block;" viewBox="0 0 1371.5 320" fill="none" xmlns="http://www.w3.org/2000/svg">
<g id="Group 1261151962">
<ellipse id="Ellipse 2" cx="270.5" cy="315" rx="5" ry="5" fill="var(--fill-0, #FF00CC)" fill-opacity="0.16"/>
<ellipse id="Ellipse 3" cx="690.5" cy="88" rx="5" ry="5" fill="var(--fill-0, #FF00CC)" fill-opacity="0.16"/>
<ellipse id="Ellipse 4" cx="767.5" cy="227" rx="5" ry="5" fill="var(--fill-0, #FF00CC)" fill-opacity="0.16"/>
<ellipse id="Ellipse 6" cx="270.5" cy="5" rx="5" ry="5" fill="var(--fill-0, #FF00CC)" fill-opacity="0.16"/>
<ellipse id="Ellipse 5" cx="1366.5" cy="154" rx="5" ry="5" fill="var(--fill-0, #FF00CC)" fill-opacity="0.16"/>
<path id="Vector 3" d="M273.167 5.00039C273.167 6.47315 271.973 7.66706 270.5 7.66706C269.027 7.66706 267.833 6.47315 267.833 5.00039C267.833 3.52763 269.027 2.33372 270.5 2.33372C271.973 2.33372 273.167 3.52763 273.167 5.00039ZM270.5 5.00039V5.50039H8.5V5.00039V4.50039H270.5V5.00039ZM0.499996 13.0004H0.999996V79.0004H0.499996H-4.38094e-06V13.0004H0.499996ZM8.5 5.00039V5.50039C4.35788 5.50039 0.999996 8.85825 0.999996 13.0004H0.499996H-4.38094e-06C-4.38094e-06 8.30597 3.8056 4.50039 8.5 4.50039V5.00039Z" fill="var(--stroke-0, #FF00CC)"/>
</g>
</svg>
